<svg id="Layer_1" data-name="Layer 1" xmlns="http://www.w3.org/2000/svg" viewBox="0 0 1080 1080">
<defs>
<style>.cls-1{fill:transparent;}.cls-2{font-size:27.64px;font-family:Objectivity-Medium, Objectivity;font-weight:500;letter-spacing:0.3em;}.cls-2,.cls-6{fill:#fff;}.cls-3{letter-spacing:0.27em;}.cls-4{letter-spacing:0.19em;}.cls-5{fill:#22c55e;}</style>
</defs>
<rect class="cls-1" x="4.49" y="-7.77" width="1081.53" height="1090.72"/>
<text class="cls-2" transform="translate(363.65 629.71)">SECURITY SE<tspan class="cls-3" x="283.98" y="0">R</tspan>
<tspan x="312.09" y="0">VICES </tspan>
<tspan class="cls-4" x="459.17" y="0">L</tspan>
<tspan x="480.59" y="0">TD</tspan>
</text>
<polygon class="cls-5" points="312.02 552.76 312.02 604.88 299.19 611.84 289.6 617.05 280.85 621.8 267.42 629.1 253.98 621.79 235.75 611.9 235.75 621.41 245.22 626.56 258.66 633.86 267.42 638.61 276.18 633.85 289.61 626.56 298.36 621.8 299.19 622.27 299.19 621.35 312.02 614.39 312.02 628.99 311.79 629.11 303.05 633.86 299.19 635.95 289.61 641.15 280.85 645.91 267.42 653.21 253.98 645.9 245.22 641.15 235.75 636.01 231.78 633.85 222.94 629.05 222.94 590.34 235.75 597.3 267.42 614.5 276.16 609.75 299.19 597.24 299.19 565.58 235.75 565.58 235.75 587.81 222.94 580.85 222.94 552.76 312.02 552.76"/><path d="M324.19,574.18l-1.26-.68h0V560.56h0v11.52A2.39,2.39,0,0,0,324.19,574.18Z"/><path d="M324.19,613.05a2.39,2.39,0,0,0-1.26,2.11v11.51h0V613.74h0Z"/><path class="cls-6" d="M322.93,542.25H211.34v92.1a2.4,2.4,0,0,0,1.19,2.07l6.6,3.85,1.42.83,12.16,7.09,1.57.92,8.95,5.21,13.73,8,8.93,5.21a2.41,2.41,0,0,0,2.42,0l8.07-4.76,13.67-8,8.9-5.25,1-.56,12.7-7.47.89-.53,8-4.71.23-.14a2.39,2.39,0,0,0,1.18-2.06V615.16a2.39,2.39,0,0,1,1.26-2.11l1.18-.64,12.77-6.93v14.37h0V641a2.4,2.4,0,0,1-1.18,2.07l-1.33.78-8.9,5.24-3.81,2.24-9.42,5.54-.43.25-8.91,5.25-4.25,2.5-9.42,5.54-9.75,5.74-12.41,7.3a2.38,2.38,0,0,1-2.42,0l-12.43-7.24L242.8,670l-10.09-5.88L229.07,662l-8.95-5.23-1-.57-7.79-4.55-5-2.88-9.07-5.29a2.41,2.41,0,0,1-1.19-2.07V537.07a10,10,0,0,1,10-10H325.72a12.43,12.43,0,0,1,12.43,12.43v37.77h0v4.51L334,579.49l-1.14-.62-8.65-4.69a2.39,2.39,0,0,1-1.26-2.1Z"/><path class="cls-6" d="M379.25,589C370,589,366,585.67,366,578.33s3.92-10.61,13.25-10.61c7.39,0,11.77,2.1,12.85,7.43l8.23-4.75c-2.68-6.83-9.55-10.37-21.08-10.37-15.7,0-22.43,6.47-22.43,18.3s6.73,18.4,22.43,18.4c11.5,0,18.37-3.56,21.06-10.4l-8.23-4.75C391,586.91,386.56,589,379.25,589Z"/><path class="cls-6" d="M714.57,589.29c-9.28,0-13.25-3.36-13.25-10.7S705.24,568,714.57,568c7.39,0,11.77,2.1,12.85,7.43l8.23-4.75c-2.68-6.83-9.55-10.37-21.08-10.37-15.7,0-22.43,6.47-22.43,18.3s6.73,18.4,22.43,18.4c11.5,0,18.37-3.56,21.06-10.4l-8.23-4.75C726.31,587.17,721.88,589.29,714.57,589.29Z"/><path class="cls-6" d="M427.48,560c-15.7,0-22.43,6.47-22.43,18.3s6.73,18.4,22.43,18.4,22.43-6.58,22.43-18.4S443.13,560,427.48,560Zm0,29c-9.53,0-13.26-3.36-13.26-10.7s3.67-10.61,13.26-10.61,13.25,3.37,13.25,10.61S437,589,427.48,589Z"/><path class="cls-6" d="M490.75,565.06v22.29l-24.37-26.82H453.94v35.08l9.17-3.68V569.46l24.32,26.76h12.49V561.37Z"/><path class="cls-6" d="M883.94,565.06v22.29l-24.37-26.82H847.13v35.08l9.17-3.68V569.46l24.32,26.76h12.49V561.37Z"/><path class="cls-6" d="M540.14,576.07a74.33,74.33,0,0,0-10.48-1.18l-3.23-.18c-10.4-.61-12.54-1.12-12.54-3.88s2.14-3.51,11.16-3.51c5.29,0,8.86.3,11,1.23l8.89-3.57c-3.45-3.5-10-5-18.85-5-13.35,0-21.36,2.49-21.36,10.34,0,5,2.4,7.83,8,9.42l.73.2a35.57,35.57,0,0,0,3.72.73c1.45.22,3,.39,4.76.54,1.41.11,2.92.2,4.53.28,11.57.56,13.61,1.07,13.61,4,0,2.8-2.9,3.87-12.54,3.87-5.7,0-9.34-.42-11.57-1.29l-9.39,3.77c3.69,3.72,10.78,4.81,20.45,4.81,13.2,0,22.23-1.94,22.23-11.47C549.22,579.72,545.93,577.29,540.14,576.07Z"/><path class="cls-6" d="M549.93,560.53v7.7h17.33v28h9.18v-28h17.33v-7.7Z"/><path class="cls-6" d="M639.2,573.64a13.75,13.75,0,0,0-1.57-6.62,11.57,11.57,0,0,0-2.87-3.49,14.4,14.4,0,0,0-9.23-3h-28v35.69h9.17v-9.53h14.79l2.19,3.63L637.91,596l-6.46-10.42C636.24,583.73,639.2,579.45,639.2,573.64ZM623,579H606.67V568.23H623c2.75,0,7,0,7,5.41S625.74,579,623,579Z"/><path class="cls-6" d="M678.91,561.11v17.22c0,4.94-1.38,10.7-13.25,10.7s-13.26-5.71-13.26-10.7V561.09l-9.18,3.69v13.55c0,12.44,6.73,18.4,22.44,18.4s22.43-6,22.43-18.4V564.8Z"/><path class="cls-6" d="M737.74,560.53v7.7h17.33v28h9.18v-28h17.33v-7.7Z"/><path class="cls-6" d="M785.3,560.53v35.69h9.18V560.53Z"/>
<path class="cls-6" d="M820.68,560c-15.7,0-22.43,6.47-22.43,18.3s6.73,18.4,22.43,18.4,22.43-6.58,22.43-18.4S836.33,560,820.68,560Zm0,29c-9.53,0-13.25-3.36-13.25-10.7s3.67-10.61,13.25-10.61,13.26,3.37,13.26,10.61S830.22,589,820.68,589Z"/><path class="cls-6" d="M521.9,581.26c-1.73-.15-3.31-.32-4.76-.54a35.57,35.57,0,0,1-3.72-.73l6.86-2.76Z"/><path class="cls-6" d="M529.66,574.89a74.33,74.33,0,0,1,10.48,1.18l-8.62,3.46Z"/><polygon class="cls-6" points="555.97 568.23 549.93 568.23 549.93 562.97 553.31 561.61 555.97 568.23"/><path class="cls-6" d="M637.63,567l-1.26.51-1.61-4A11.57,11.57,0,0,1,637.63,567Z"/></svg>